<mxfile host="app.diagrams.net" modified="2023-06-05T16:34:49.205Z" agent="Mozilla/5.0 (Windows NT 10.0; Win64; x64) AppleWebKit/537.36 (KHTML, like Gecko) Chrome/114.0.0.0 Safari/537.36" etag="SXPAhjRQLdf2txYp8gJ7" version="21.3.7" type="github">
  <diagram name="第 1 页" id="-7MG3ne_HRRirumGcXNG">
    <mxGraphModel dx="954" dy="676" grid="1" gridSize="10" guides="1" tooltips="1" connect="1" arrows="1" fold="1" page="1" pageScale="1" pageWidth="827" pageHeight="1169" math="0" shadow="0">
      <root>
        <mxCell id="0" />
        <mxCell id="1" parent="0" />
        <mxCell id="66iXJv4rXnESI1muUsAo-7" style="edgeStyle=orthogonalEdgeStyle;rounded=0;orthogonalLoop=1;jettySize=auto;html=1;exitX=1;exitY=0.5;exitDx=0;exitDy=0;entryX=0;entryY=0.5;entryDx=0;entryDy=0;fontColor=none;labelBackgroundColor=none;noLabel=1;strokeColor=#FFE599;" parent="1" source="66iXJv4rXnESI1muUsAo-1" target="66iXJv4rXnESI1muUsAo-4" edge="1">
          <mxGeometry relative="1" as="geometry" />
        </mxCell>
        <mxCell id="66iXJv4rXnESI1muUsAo-1" value="CNOT Q[1],Q[0]" style="ellipse;whiteSpace=wrap;html=1;strokeColor=#FFE599;fillColor=#FFF2CC;" parent="1" vertex="1">
          <mxGeometry x="170" y="260" width="100" height="50" as="geometry" />
        </mxCell>
        <mxCell id="66iXJv4rXnESI1muUsAo-12" style="edgeStyle=orthogonalEdgeStyle;orthogonalLoop=1;jettySize=auto;html=1;exitX=1;exitY=0.5;exitDx=0;exitDy=0;curved=1;strokeColor=#FFE599;" parent="1" source="66iXJv4rXnESI1muUsAo-2" target="66iXJv4rXnESI1muUsAo-3" edge="1">
          <mxGeometry relative="1" as="geometry" />
        </mxCell>
        <mxCell id="66iXJv4rXnESI1muUsAo-2" value="CNOT Q[1],Q[0]" style="ellipse;whiteSpace=wrap;html=1;strokeColor=#FFE599;fillColor=#FFF2CC;" parent="1" vertex="1">
          <mxGeometry x="460" y="260" width="100" height="50" as="geometry" />
        </mxCell>
        <mxCell id="66iXJv4rXnESI1muUsAo-13" style="edgeStyle=orthogonalEdgeStyle;rounded=0;orthogonalLoop=1;jettySize=auto;html=1;exitX=1;exitY=0.5;exitDx=0;exitDy=0;entryX=0;entryY=0.5;entryDx=0;entryDy=0;strokeColor=#FFE599;" parent="1" source="66iXJv4rXnESI1muUsAo-3" target="66iXJv4rXnESI1muUsAo-6" edge="1">
          <mxGeometry relative="1" as="geometry" />
        </mxCell>
        <mxCell id="66iXJv4rXnESI1muUsAo-3" value="CNOT Q[2],Q[1]" style="ellipse;whiteSpace=wrap;html=1;strokeColor=#FFE599;fillColor=#FFF2CC;" parent="1" vertex="1">
          <mxGeometry x="570" y="330" width="100" height="50" as="geometry" />
        </mxCell>
        <mxCell id="66iXJv4rXnESI1muUsAo-8" style="edgeStyle=orthogonalEdgeStyle;rounded=0;orthogonalLoop=1;jettySize=auto;html=1;exitX=1;exitY=0.5;exitDx=0;exitDy=0;entryX=0;entryY=0.5;entryDx=0;entryDy=0;strokeColor=#FFE599;" parent="1" source="66iXJv4rXnESI1muUsAo-4" target="66iXJv4rXnESI1muUsAo-2" edge="1">
          <mxGeometry relative="1" as="geometry" />
        </mxCell>
        <mxCell id="66iXJv4rXnESI1muUsAo-4" value="Y Q[0]" style="ellipse;whiteSpace=wrap;html=1;strokeColor=#FFE599;fillColor=#FFF2CC;" parent="1" vertex="1">
          <mxGeometry x="320" y="260" width="100" height="50" as="geometry" />
        </mxCell>
        <mxCell id="66iXJv4rXnESI1muUsAo-9" style="edgeStyle=orthogonalEdgeStyle;rounded=0;orthogonalLoop=1;jettySize=auto;html=1;exitX=1;exitY=0.5;exitDx=0;exitDy=0;entryX=0;entryY=0.5;entryDx=0;entryDy=0;strokeColor=#FFE599;" parent="1" source="66iXJv4rXnESI1muUsAo-5" target="66iXJv4rXnESI1muUsAo-3" edge="1">
          <mxGeometry relative="1" as="geometry" />
        </mxCell>
        <mxCell id="66iXJv4rXnESI1muUsAo-5" value="H Q[2]" style="ellipse;whiteSpace=wrap;html=1;strokeColor=#FFE599;fillColor=#FFF2CC;" parent="1" vertex="1">
          <mxGeometry x="170" y="330" width="100" height="50" as="geometry" />
        </mxCell>
        <mxCell id="66iXJv4rXnESI1muUsAo-6" value="Z Q[1]" style="ellipse;whiteSpace=wrap;html=1;strokeColor=#FFE599;fillColor=#FFF2CC;" parent="1" vertex="1">
          <mxGeometry x="720" y="330" width="100" height="50" as="geometry" />
        </mxCell>
        <mxCell id="66iXJv4rXnESI1muUsAo-14" value="Q[0]" style="text;html=1;strokeColor=none;fillColor=none;align=center;verticalAlign=middle;whiteSpace=wrap;rounded=0;fontColor=#FFE599;" parent="1" vertex="1">
          <mxGeometry x="260" y="260" width="60" height="30" as="geometry" />
        </mxCell>
        <mxCell id="66iXJv4rXnESI1muUsAo-15" value="Q[0]" style="text;html=1;strokeColor=none;fillColor=none;align=center;verticalAlign=middle;whiteSpace=wrap;rounded=0;fontColor=#FFE599;" parent="1" vertex="1">
          <mxGeometry x="400" y="260" width="60" height="30" as="geometry" />
        </mxCell>
        <mxCell id="66iXJv4rXnESI1muUsAo-16" value="Q[1]" style="text;html=1;strokeColor=none;fillColor=none;align=center;verticalAlign=middle;whiteSpace=wrap;rounded=0;fontColor=#FFE599;" parent="1" vertex="1">
          <mxGeometry x="590" y="270" width="60" height="30" as="geometry" />
        </mxCell>
        <mxCell id="66iXJv4rXnESI1muUsAo-20" value="Q[1]" style="text;html=1;strokeColor=none;fillColor=none;align=center;verticalAlign=middle;whiteSpace=wrap;rounded=0;fontColor=#FFE599;" parent="1" vertex="1">
          <mxGeometry x="660" y="330" width="60" height="30" as="geometry" />
        </mxCell>
        <mxCell id="66iXJv4rXnESI1muUsAo-19" value="Q[2]" style="text;html=1;strokeColor=none;fillColor=none;align=center;verticalAlign=middle;whiteSpace=wrap;rounded=0;fontColor=#FFE599;" parent="1" vertex="1">
          <mxGeometry x="384" y="330" width="60" height="30" as="geometry" />
        </mxCell>
      </root>
    </mxGraphModel>
  </diagram>
</mxfile>
